<svg xmlns="http://www.w3.org/2000/svg" width="480" height="480" viewBox="0 0 480 480" role="img"><title>Immediate</title><style>@import url("https://fonts.googleapis.com/css2?family=Geist:wght@400;500;600&amp;family=Geist+Mono:wght@400;500;600&amp;display=swap");</style><rect width="480" height="480" fill="#F6F6F5"/><defs>
<pattern id="pl04immediate-hatch" width="6" height="6" patternUnits="userSpaceOnUse" patternTransform="rotate(45)"><line x1="0" y1="0" x2="0" y2="6" stroke="#B4602F" stroke-width="1.2"/></pattern>
<pattern id="pl04immediate-hatchv" width="6" height="6" patternUnits="userSpaceOnUse" patternTransform="rotate(45)"><line x1="0" y1="0" x2="0" y2="6" stroke="#3F8A85" stroke-width="1.2"/></pattern>
<pattern id="pl04immediate-dots" width="24" height="24" patternUnits="userSpaceOnUse"><rect x="11.5" y="11.5" width="1" height="1" fill="#6E6E75" opacity="0.45"/></pattern>
<pattern id="pl04immediate-micro" width="4" height="4" patternUnits="userSpaceOnUse"><rect x="0" y="0" width="3" height="3" fill="#6E6E75" opacity="0.55"/></pattern>
</defs><g shape-rendering="crispEdges"><text x="24" y="28" font-family="'Geist Mono', ui-monospace, monospace" font-size="10" fill="#141416" text-anchor="start" font-weight="500" letter-spacing="1.4">FIG. 04</text>
<text x="84" y="28" font-family="'Geist Mono', ui-monospace, monospace" font-size="10" fill="#6E6E75" text-anchor="start" font-weight="400" letter-spacing="1.2">IMMEDIATE</text>
<text x="456" y="28" font-family="'Geist Mono', ui-monospace, monospace" font-size="10" fill="#6E6E75" text-anchor="end" font-weight="400" letter-spacing="1.2">PL-04</text>
<line x1="24" y1="40" x2="456" y2="40" stroke="#6E6E75" stroke-width="0.75" />
<line x1="24" y1="40" x2="24" y2="46" stroke="#6E6E75" stroke-width="0.75" />
<line x1="32" y1="40" x2="32" y2="43" stroke="#6E6E75" stroke-width="0.75" />
<line x1="40" y1="40" x2="40" y2="43" stroke="#6E6E75" stroke-width="0.75" />
<line x1="48" y1="40" x2="48" y2="43" stroke="#6E6E75" stroke-width="0.75" />
<line x1="56" y1="40" x2="56" y2="43" stroke="#6E6E75" stroke-width="0.75" />
<line x1="64" y1="40" x2="64" y2="46" stroke="#6E6E75" stroke-width="0.75" />
<line x1="72" y1="40" x2="72" y2="43" stroke="#6E6E75" stroke-width="0.75" />
<line x1="80" y1="40" x2="80" y2="43" stroke="#6E6E75" stroke-width="0.75" />
<line x1="88" y1="40" x2="88" y2="43" stroke="#6E6E75" stroke-width="0.75" />
<line x1="96" y1="40" x2="96" y2="43" stroke="#6E6E75" stroke-width="0.75" />
<line x1="104" y1="40" x2="104" y2="46" stroke="#6E6E75" stroke-width="0.75" />
<line x1="112" y1="40" x2="112" y2="43" stroke="#6E6E75" stroke-width="0.75" />
<line x1="120" y1="40" x2="120" y2="43" stroke="#6E6E75" stroke-width="0.75" />
<line x1="128" y1="40" x2="128" y2="43" stroke="#6E6E75" stroke-width="0.75" />
<line x1="136" y1="40" x2="136" y2="43" stroke="#6E6E75" stroke-width="0.75" />
<line x1="144" y1="40" x2="144" y2="46" stroke="#6E6E75" stroke-width="0.75" />
<line x1="152" y1="40" x2="152" y2="43" stroke="#6E6E75" stroke-width="0.75" />
<line x1="160" y1="40" x2="160" y2="43" stroke="#6E6E75" stroke-width="0.75" />
<line x1="168" y1="40" x2="168" y2="43" stroke="#6E6E75" stroke-width="0.75" />
<line x1="176" y1="40" x2="176" y2="43" stroke="#6E6E75" stroke-width="0.75" />
<line x1="184" y1="40" x2="184" y2="46" stroke="#6E6E75" stroke-width="0.75" />
<line x1="192" y1="40" x2="192" y2="43" stroke="#6E6E75" stroke-width="0.75" />
<line x1="200" y1="40" x2="200" y2="43" stroke="#6E6E75" stroke-width="0.75" />
<line x1="208" y1="40" x2="208" y2="43" stroke="#6E6E75" stroke-width="0.75" />
<line x1="216" y1="40" x2="216" y2="43" stroke="#6E6E75" stroke-width="0.75" />
<line x1="224" y1="40" x2="224" y2="46" stroke="#6E6E75" stroke-width="0.75" />
<line x1="232" y1="40" x2="232" y2="43" stroke="#6E6E75" stroke-width="0.75" />
<line x1="240" y1="40" x2="240" y2="43" stroke="#6E6E75" stroke-width="0.75" />
<line x1="248" y1="40" x2="248" y2="43" stroke="#6E6E75" stroke-width="0.75" />
<line x1="256" y1="40" x2="256" y2="43" stroke="#6E6E75" stroke-width="0.75" />
<line x1="264" y1="40" x2="264" y2="46" stroke="#6E6E75" stroke-width="0.75" />
<line x1="272" y1="40" x2="272" y2="43" stroke="#6E6E75" stroke-width="0.75" />
<line x1="280" y1="40" x2="280" y2="43" stroke="#6E6E75" stroke-width="0.75" />
<line x1="288" y1="40" x2="288" y2="43" stroke="#6E6E75" stroke-width="0.75" />
<line x1="296" y1="40" x2="296" y2="43" stroke="#6E6E75" stroke-width="0.75" />
<line x1="304" y1="40" x2="304" y2="46" stroke="#6E6E75" stroke-width="0.75" />
<line x1="312" y1="40" x2="312" y2="43" stroke="#6E6E75" stroke-width="0.75" />
<line x1="320" y1="40" x2="320" y2="43" stroke="#6E6E75" stroke-width="0.75" />
<line x1="328" y1="40" x2="328" y2="43" stroke="#6E6E75" stroke-width="0.75" />
<line x1="336" y1="40" x2="336" y2="43" stroke="#6E6E75" stroke-width="0.75" />
<line x1="344" y1="40" x2="344" y2="46" stroke="#6E6E75" stroke-width="0.75" />
<line x1="352" y1="40" x2="352" y2="43" stroke="#6E6E75" stroke-width="0.75" />
<line x1="360" y1="40" x2="360" y2="43" stroke="#6E6E75" stroke-width="0.75" />
<line x1="368" y1="40" x2="368" y2="43" stroke="#6E6E75" stroke-width="0.75" />
<line x1="376" y1="40" x2="376" y2="43" stroke="#6E6E75" stroke-width="0.75" />
<line x1="384" y1="40" x2="384" y2="46" stroke="#6E6E75" stroke-width="0.75" />
<line x1="392" y1="40" x2="392" y2="43" stroke="#6E6E75" stroke-width="0.75" />
<line x1="400" y1="40" x2="400" y2="43" stroke="#6E6E75" stroke-width="0.75" />
<line x1="408" y1="40" x2="408" y2="43" stroke="#6E6E75" stroke-width="0.75" />
<line x1="416" y1="40" x2="416" y2="43" stroke="#6E6E75" stroke-width="0.75" />
<line x1="424" y1="40" x2="424" y2="46" stroke="#6E6E75" stroke-width="0.75" />
<line x1="432" y1="40" x2="432" y2="43" stroke="#6E6E75" stroke-width="0.75" />
<line x1="440" y1="40" x2="440" y2="43" stroke="#6E6E75" stroke-width="0.75" />
<line x1="448" y1="40" x2="448" y2="43" stroke="#6E6E75" stroke-width="0.75" />
<line x1="456" y1="40" x2="456" y2="43" stroke="#6E6E75" stroke-width="0.75" />
<line x1="24" y1="40" x2="30" y2="40" stroke="#6E6E75" stroke-width="0.75" />
<line x1="24" y1="48" x2="27" y2="48" stroke="#6E6E75" stroke-width="0.75" />
<line x1="24" y1="56" x2="27" y2="56" stroke="#6E6E75" stroke-width="0.75" />
<line x1="24" y1="64" x2="27" y2="64" stroke="#6E6E75" stroke-width="0.75" />
<line x1="24" y1="72" x2="27" y2="72" stroke="#6E6E75" stroke-width="0.75" />
<line x1="24" y1="80" x2="30" y2="80" stroke="#6E6E75" stroke-width="0.75" />
<line x1="24" y1="88" x2="27" y2="88" stroke="#6E6E75" stroke-width="0.75" />
<line x1="24" y1="96" x2="27" y2="96" stroke="#6E6E75" stroke-width="0.75" />
<line x1="24" y1="104" x2="27" y2="104" stroke="#6E6E75" stroke-width="0.75" />
<line x1="24" y1="112" x2="27" y2="112" stroke="#6E6E75" stroke-width="0.75" />
<line x1="24" y1="120" x2="30" y2="120" stroke="#6E6E75" stroke-width="0.75" />
<line x1="24" y1="128" x2="27" y2="128" stroke="#6E6E75" stroke-width="0.75" />
<line x1="24" y1="136" x2="27" y2="136" stroke="#6E6E75" stroke-width="0.75" />
<line x1="24" y1="144" x2="27" y2="144" stroke="#6E6E75" stroke-width="0.75" />
<line x1="24" y1="152" x2="27" y2="152" stroke="#6E6E75" stroke-width="0.75" />
<line x1="24" y1="160" x2="30" y2="160" stroke="#6E6E75" stroke-width="0.75" />
<line x1="24" y1="168" x2="27" y2="168" stroke="#6E6E75" stroke-width="0.75" />
<line x1="24" y1="176" x2="27" y2="176" stroke="#6E6E75" stroke-width="0.75" />
<line x1="24" y1="184" x2="27" y2="184" stroke="#6E6E75" stroke-width="0.75" />
<line x1="24" y1="192" x2="27" y2="192" stroke="#6E6E75" stroke-width="0.75" />
<line x1="24" y1="200" x2="30" y2="200" stroke="#6E6E75" stroke-width="0.75" />
<line x1="24" y1="208" x2="27" y2="208" stroke="#6E6E75" stroke-width="0.75" />
<line x1="24" y1="216" x2="27" y2="216" stroke="#6E6E75" stroke-width="0.75" />
<line x1="24" y1="224" x2="27" y2="224" stroke="#6E6E75" stroke-width="0.75" />
<line x1="24" y1="232" x2="27" y2="232" stroke="#6E6E75" stroke-width="0.75" />
<line x1="24" y1="240" x2="30" y2="240" stroke="#6E6E75" stroke-width="0.75" />
<line x1="24" y1="248" x2="27" y2="248" stroke="#6E6E75" stroke-width="0.75" />
<line x1="24" y1="256" x2="27" y2="256" stroke="#6E6E75" stroke-width="0.75" />
<line x1="24" y1="264" x2="27" y2="264" stroke="#6E6E75" stroke-width="0.75" />
<line x1="24" y1="272" x2="27" y2="272" stroke="#6E6E75" stroke-width="0.75" />
<line x1="24" y1="280" x2="30" y2="280" stroke="#6E6E75" stroke-width="0.75" />
<line x1="24" y1="288" x2="27" y2="288" stroke="#6E6E75" stroke-width="0.75" />
<line x1="24" y1="296" x2="27" y2="296" stroke="#6E6E75" stroke-width="0.75" />
<line x1="24" y1="304" x2="27" y2="304" stroke="#6E6E75" stroke-width="0.75" />
<line x1="24" y1="312" x2="27" y2="312" stroke="#6E6E75" stroke-width="0.75" />
<line x1="24" y1="320" x2="30" y2="320" stroke="#6E6E75" stroke-width="0.75" />
<line x1="24" y1="328" x2="27" y2="328" stroke="#6E6E75" stroke-width="0.75" />
<line x1="24" y1="336" x2="27" y2="336" stroke="#6E6E75" stroke-width="0.75" />
<line x1="24" y1="344" x2="27" y2="344" stroke="#6E6E75" stroke-width="0.75" />
<line x1="24" y1="352" x2="27" y2="352" stroke="#6E6E75" stroke-width="0.75" />
<line x1="24" y1="360" x2="30" y2="360" stroke="#6E6E75" stroke-width="0.75" />
<line x1="24" y1="368" x2="27" y2="368" stroke="#6E6E75" stroke-width="0.75" />
<line x1="24" y1="376" x2="27" y2="376" stroke="#6E6E75" stroke-width="0.75" />
<line x1="24" y1="384" x2="27" y2="384" stroke="#6E6E75" stroke-width="0.75" />
<line x1="24" y1="392" x2="27" y2="392" stroke="#6E6E75" stroke-width="0.75" />
<line x1="24" y1="400" x2="30" y2="400" stroke="#6E6E75" stroke-width="0.75" />
<line x1="24" y1="408" x2="27" y2="408" stroke="#6E6E75" stroke-width="0.75" />
<line x1="24" y1="416" x2="27" y2="416" stroke="#6E6E75" stroke-width="0.75" />
<line x1="24" y1="424" x2="27" y2="424" stroke="#6E6E75" stroke-width="0.75" />
<line x1="24" y1="432" x2="27" y2="432" stroke="#6E6E75" stroke-width="0.75" />
<line x1="24" y1="440" x2="30" y2="440" stroke="#6E6E75" stroke-width="0.75" />
<line x1="24" y1="448" x2="27" y2="448" stroke="#6E6E75" stroke-width="0.75" />
<line x1="24" y1="456" x2="27" y2="456" stroke="#6E6E75" stroke-width="0.75" />
<line x1="24" y1="40" x2="24" y2="456" stroke="#6E6E75" stroke-width="0.75" />
<line x1="450" y1="456" x2="462" y2="456" stroke="#141416" stroke-width="0.75" />
<line x1="456" y1="450" x2="456" y2="462" stroke="#141416" stroke-width="0.75" />
<text x="40" y="460" font-family="'Geist Mono', ui-monospace, monospace" font-size="8" fill="#6E6E75" text-anchor="start" font-weight="400" letter-spacing="1.4">ISOMER · COPPER VERDIGRIS</text>
<text x="440" y="460" font-family="'Geist Mono', ui-monospace, monospace" font-size="8" fill="#6E6E75" text-anchor="end" font-weight="400" letter-spacing="1.4">SCALE 1:1</text></g><line x1="64" y1="88" x2="64" y2="312" stroke="#141416" stroke-width="1" />
<text x="56" y="84" font-family="'Geist Mono', ui-monospace, monospace" font-size="8" fill="#6E6E75" text-anchor="start" font-weight="400" letter-spacing="0.8">OPTIONS OPEN</text>
<rect x="64.0" y="112" width="12.299999999999997" height="200" fill="#D3E6E4" stroke="none" stroke-width="0" />
<path d="M64.0 112 H125.3 V140 H186.7 V170 H248.0 V200 H309.3 V230 H370.7 V260 H407.5 V284 H432.0 V304" stroke="#141416" stroke-width="1.5" fill="none" stroke-linejoin="miter" stroke-linecap="square" />
<line x1="64" y1="312" x2="432" y2="312" stroke="#141416" stroke-width="1" />
<line x1="64.0" y1="312" x2="64.0" y2="320" stroke="#141416" stroke-width="0.75" />
<text x="64.0" y="334" font-family="'Geist Mono', ui-monospace, monospace" font-size="8" fill="#6E6E75" text-anchor="middle" font-weight="400" letter-spacing="0.8">d0</text>
<line x1="76.3" y1="312" x2="76.3" y2="316" stroke="#141416" stroke-width="0.75" />
<line x1="88.5" y1="312" x2="88.5" y2="316" stroke="#141416" stroke-width="0.75" />
<line x1="100.8" y1="312" x2="100.8" y2="316" stroke="#141416" stroke-width="0.75" />
<line x1="113.1" y1="312" x2="113.1" y2="316" stroke="#141416" stroke-width="0.75" />
<line x1="125.3" y1="312" x2="125.3" y2="320" stroke="#141416" stroke-width="0.75" />
<text x="125.3" y="334" font-family="'Geist Mono', ui-monospace, monospace" font-size="8" fill="#6E6E75" text-anchor="middle" font-weight="400" letter-spacing="0.8">d5</text>
<line x1="137.6" y1="312" x2="137.6" y2="316" stroke="#141416" stroke-width="0.75" />
<line x1="149.9" y1="312" x2="149.9" y2="316" stroke="#141416" stroke-width="0.75" />
<line x1="162.1" y1="312" x2="162.1" y2="316" stroke="#141416" stroke-width="0.75" />
<line x1="174.4" y1="312" x2="174.4" y2="316" stroke="#141416" stroke-width="0.75" />
<line x1="186.7" y1="312" x2="186.7" y2="320" stroke="#141416" stroke-width="0.75" />
<text x="186.7" y="334" font-family="'Geist Mono', ui-monospace, monospace" font-size="8" fill="#6E6E75" text-anchor="middle" font-weight="400" letter-spacing="0.8">d10</text>
<line x1="198.9" y1="312" x2="198.9" y2="316" stroke="#141416" stroke-width="0.75" />
<line x1="211.2" y1="312" x2="211.2" y2="316" stroke="#141416" stroke-width="0.75" />
<line x1="223.5" y1="312" x2="223.5" y2="316" stroke="#141416" stroke-width="0.75" />
<line x1="235.7" y1="312" x2="235.7" y2="316" stroke="#141416" stroke-width="0.75" />
<line x1="248.0" y1="312" x2="248.0" y2="320" stroke="#141416" stroke-width="0.75" />
<text x="248.0" y="334" font-family="'Geist Mono', ui-monospace, monospace" font-size="8" fill="#6E6E75" text-anchor="middle" font-weight="400" letter-spacing="0.8">d15</text>
<line x1="260.3" y1="312" x2="260.3" y2="316" stroke="#141416" stroke-width="0.75" />
<line x1="272.5" y1="312" x2="272.5" y2="316" stroke="#141416" stroke-width="0.75" />
<line x1="284.8" y1="312" x2="284.8" y2="316" stroke="#141416" stroke-width="0.75" />
<line x1="297.1" y1="312" x2="297.1" y2="316" stroke="#141416" stroke-width="0.75" />
<line x1="309.3" y1="312" x2="309.3" y2="320" stroke="#141416" stroke-width="0.75" />
<text x="309.3" y="334" font-family="'Geist Mono', ui-monospace, monospace" font-size="8" fill="#6E6E75" text-anchor="middle" font-weight="400" letter-spacing="0.8">d20</text>
<line x1="321.6" y1="312" x2="321.6" y2="316" stroke="#141416" stroke-width="0.75" />
<line x1="333.9" y1="312" x2="333.9" y2="316" stroke="#141416" stroke-width="0.75" />
<line x1="346.1" y1="312" x2="346.1" y2="316" stroke="#141416" stroke-width="0.75" />
<line x1="358.4" y1="312" x2="358.4" y2="316" stroke="#141416" stroke-width="0.75" />
<line x1="370.7" y1="312" x2="370.7" y2="320" stroke="#141416" stroke-width="0.75" />
<text x="370.7" y="334" font-family="'Geist Mono', ui-monospace, monospace" font-size="8" fill="#6E6E75" text-anchor="middle" font-weight="400" letter-spacing="0.8">d25</text>
<line x1="382.9" y1="312" x2="382.9" y2="316" stroke="#141416" stroke-width="0.75" />
<line x1="395.2" y1="312" x2="395.2" y2="316" stroke="#141416" stroke-width="0.75" />
<line x1="407.5" y1="312" x2="407.5" y2="316" stroke="#141416" stroke-width="0.75" />
<line x1="419.7" y1="312" x2="419.7" y2="316" stroke="#141416" stroke-width="0.75" />
<line x1="432.0" y1="312" x2="432.0" y2="320" stroke="#141416" stroke-width="0.75" />
<text x="432.0" y="334" font-family="'Geist Mono', ui-monospace, monospace" font-size="8" fill="#6E6E75" text-anchor="middle" font-weight="400" letter-spacing="0.8">d30</text>
<rect x="64.0" y="344" width="368.0" height="22" fill="#F2DCCB" stroke="#B4602F" stroke-width="1" />
<rect x="64.0" y="344" width="368.0" height="22" fill="url(#pl04immediate-hatch)" stroke="none" stroke-width="0" opacity="0.55"/>
<text x="64.0" y="384" font-family="'Geist Mono', ui-monospace, monospace" font-size="9" fill="#8E4720" text-anchor="start" font-weight="500" letter-spacing="0.8">TIME-LIMITED DEMAND · 30-DAY CLOCK</text>
<line x1="64.0" y1="72" x2="64.0" y2="366" stroke="#3F8A85" stroke-width="1.5" />
<rect x="60.0" y="108.0" width="8" height="8" fill="#3F8A85" stroke="none" stroke-width="1" />
<text x="74.0" y="76" font-family="'Geist Mono', ui-monospace, monospace" font-size="9" fill="#2E6B68" text-anchor="start" font-weight="600" letter-spacing="0.8">ISOMER · t₀</text>
<line x1="346.1" y1="96" x2="346.1" y2="366" stroke="#B4602F" stroke-width="1.25" stroke-dasharray="4 3"/>
<rect x="342.1" y="226.0" width="8" height="8" fill="#B4602F" stroke="none" stroke-width="1" />
<text x="340.1" y="100" font-family="'Geist Mono', ui-monospace, monospace" font-size="9" fill="#8E4720" text-anchor="end" font-weight="600" letter-spacing="0.8">MANUAL TRIAGE · d23</text>
<path d="M64.0 412 V418 H346.1 V412" stroke="#6E6E75" stroke-width="1" fill="none" stroke-linejoin="miter" stroke-linecap="square" />
<text x="205.05" y="432" font-family="'Geist Mono', ui-monospace, monospace" font-size="9" fill="#141416" text-anchor="middle" font-weight="500" letter-spacing="0.8">Δ 23 DAYS</text></svg>