<svg xmlns="http://www.w3.org/2000/svg" width="720" height="480" viewBox="0 0 720 480" role="img"><title>The 4-week assessment</title><style>@import url("https://fonts.googleapis.com/css2?family=Geist:wght@400;500;600&amp;family=Geist+Mono:wght@400;500;600&amp;display=swap");</style><rect width="720" height="480" fill="#F6F6F5"/><defs>
<pattern id="st09fourweekassessment-hatch" width="6" height="6" patternUnits="userSpaceOnUse" patternTransform="rotate(45)"><line x1="0" y1="0" x2="0" y2="6" stroke="#B4602F" stroke-width="1.2"/></pattern>
<pattern id="st09fourweekassessment-hatchv" width="6" height="6" patternUnits="userSpaceOnUse" patternTransform="rotate(45)"><line x1="0" y1="0" x2="0" y2="6" stroke="#3F8A85" stroke-width="1.2"/></pattern>
<pattern id="st09fourweekassessment-dots" width="24" height="24" patternUnits="userSpaceOnUse"><rect x="11.5" y="11.5" width="1" height="1" fill="#6E6E75" opacity="0.45"/></pattern>
<pattern id="st09fourweekassessment-micro" width="4" height="4" patternUnits="userSpaceOnUse"><rect x="0" y="0" width="3" height="3" fill="#6E6E75" opacity="0.55"/></pattern>
</defs><g shape-rendering="crispEdges"><text x="24" y="28" font-family="'Geist Mono', ui-monospace, monospace" font-size="10" fill="#141416" text-anchor="start" font-weight="500" letter-spacing="1.4">FIG. 24</text>
<text x="84" y="28" font-family="'Geist Mono', ui-monospace, monospace" font-size="10" fill="#6E6E75" text-anchor="start" font-weight="400" letter-spacing="1.2">THE 4-WEEK ASSESSMENT</text>
<text x="696" y="28" font-family="'Geist Mono', ui-monospace, monospace" font-size="10" fill="#6E6E75" text-anchor="end" font-weight="400" letter-spacing="1.2">ST-09</text>
<line x1="24" y1="40" x2="696" y2="40" stroke="#6E6E75" stroke-width="0.75" />
<line x1="24" y1="40" x2="24" y2="46" stroke="#6E6E75" stroke-width="0.75" />
<line x1="32" y1="40" x2="32" y2="43" stroke="#6E6E75" stroke-width="0.75" />
<line x1="40" y1="40" x2="40" y2="43" stroke="#6E6E75" stroke-width="0.75" />
<line x1="48" y1="40" x2="48" y2="43" stroke="#6E6E75" stroke-width="0.75" />
<line x1="56" y1="40" x2="56" y2="43" stroke="#6E6E75" stroke-width="0.75" />
<line x1="64" y1="40" x2="64" y2="46" stroke="#6E6E75" stroke-width="0.75" />
<line x1="72" y1="40" x2="72" y2="43" stroke="#6E6E75" stroke-width="0.75" />
<line x1="80" y1="40" x2="80" y2="43" stroke="#6E6E75" stroke-width="0.75" />
<line x1="88" y1="40" x2="88" y2="43" stroke="#6E6E75" stroke-width="0.75" />
<line x1="96" y1="40" x2="96" y2="43" stroke="#6E6E75" stroke-width="0.75" />
<line x1="104" y1="40" x2="104" y2="46" stroke="#6E6E75" stroke-width="0.75" />
<line x1="112" y1="40" x2="112" y2="43" stroke="#6E6E75" stroke-width="0.75" />
<line x1="120" y1="40" x2="120" y2="43" stroke="#6E6E75" stroke-width="0.75" />
<line x1="128" y1="40" x2="128" y2="43" stroke="#6E6E75" stroke-width="0.75" />
<line x1="136" y1="40" x2="136" y2="43" stroke="#6E6E75" stroke-width="0.75" />
<line x1="144" y1="40" x2="144" y2="46" stroke="#6E6E75" stroke-width="0.75" />
<line x1="152" y1="40" x2="152" y2="43" stroke="#6E6E75" stroke-width="0.75" />
<line x1="160" y1="40" x2="160" y2="43" stroke="#6E6E75" stroke-width="0.75" />
<line x1="168" y1="40" x2="168" y2="43" stroke="#6E6E75" stroke-width="0.75" />
<line x1="176" y1="40" x2="176" y2="43" stroke="#6E6E75" stroke-width="0.75" />
<line x1="184" y1="40" x2="184" y2="46" stroke="#6E6E75" stroke-width="0.75" />
<line x1="192" y1="40" x2="192" y2="43" stroke="#6E6E75" stroke-width="0.75" />
<line x1="200" y1="40" x2="200" y2="43" stroke="#6E6E75" stroke-width="0.75" />
<line x1="208" y1="40" x2="208" y2="43" stroke="#6E6E75" stroke-width="0.75" />
<line x1="216" y1="40" x2="216" y2="43" stroke="#6E6E75" stroke-width="0.75" />
<line x1="224" y1="40" x2="224" y2="46" stroke="#6E6E75" stroke-width="0.75" />
<line x1="232" y1="40" x2="232" y2="43" stroke="#6E6E75" stroke-width="0.75" />
<line x1="240" y1="40" x2="240" y2="43" stroke="#6E6E75" stroke-width="0.75" />
<line x1="248" y1="40" x2="248" y2="43" stroke="#6E6E75" stroke-width="0.75" />
<line x1="256" y1="40" x2="256" y2="43" stroke="#6E6E75" stroke-width="0.75" />
<line x1="264" y1="40" x2="264" y2="46" stroke="#6E6E75" stroke-width="0.75" />
<line x1="272" y1="40" x2="272" y2="43" stroke="#6E6E75" stroke-width="0.75" />
<line x1="280" y1="40" x2="280" y2="43" stroke="#6E6E75" stroke-width="0.75" />
<line x1="288" y1="40" x2="288" y2="43" stroke="#6E6E75" stroke-width="0.75" />
<line x1="296" y1="40" x2="296" y2="43" stroke="#6E6E75" stroke-width="0.75" />
<line x1="304" y1="40" x2="304" y2="46" stroke="#6E6E75" stroke-width="0.75" />
<line x1="312" y1="40" x2="312" y2="43" stroke="#6E6E75" stroke-width="0.75" />
<line x1="320" y1="40" x2="320" y2="43" stroke="#6E6E75" stroke-width="0.75" />
<line x1="328" y1="40" x2="328" y2="43" stroke="#6E6E75" stroke-width="0.75" />
<line x1="336" y1="40" x2="336" y2="43" stroke="#6E6E75" stroke-width="0.75" />
<line x1="344" y1="40" x2="344" y2="46" stroke="#6E6E75" stroke-width="0.75" />
<line x1="352" y1="40" x2="352" y2="43" stroke="#6E6E75" stroke-width="0.75" />
<line x1="360" y1="40" x2="360" y2="43" stroke="#6E6E75" stroke-width="0.75" />
<line x1="368" y1="40" x2="368" y2="43" stroke="#6E6E75" stroke-width="0.75" />
<line x1="376" y1="40" x2="376" y2="43" stroke="#6E6E75" stroke-width="0.75" />
<line x1="384" y1="40" x2="384" y2="46" stroke="#6E6E75" stroke-width="0.75" />
<line x1="392" y1="40" x2="392" y2="43" stroke="#6E6E75" stroke-width="0.75" />
<line x1="400" y1="40" x2="400" y2="43" stroke="#6E6E75" stroke-width="0.75" />
<line x1="408" y1="40" x2="408" y2="43" stroke="#6E6E75" stroke-width="0.75" />
<line x1="416" y1="40" x2="416" y2="43" stroke="#6E6E75" stroke-width="0.75" />
<line x1="424" y1="40" x2="424" y2="46" stroke="#6E6E75" stroke-width="0.75" />
<line x1="432" y1="40" x2="432" y2="43" stroke="#6E6E75" stroke-width="0.75" />
<line x1="440" y1="40" x2="440" y2="43" stroke="#6E6E75" stroke-width="0.75" />
<line x1="448" y1="40" x2="448" y2="43" stroke="#6E6E75" stroke-width="0.75" />
<line x1="456" y1="40" x2="456" y2="43" stroke="#6E6E75" stroke-width="0.75" />
<line x1="464" y1="40" x2="464" y2="46" stroke="#6E6E75" stroke-width="0.75" />
<line x1="472" y1="40" x2="472" y2="43" stroke="#6E6E75" stroke-width="0.75" />
<line x1="480" y1="40" x2="480" y2="43" stroke="#6E6E75" stroke-width="0.75" />
<line x1="488" y1="40" x2="488" y2="43" stroke="#6E6E75" stroke-width="0.75" />
<line x1="496" y1="40" x2="496" y2="43" stroke="#6E6E75" stroke-width="0.75" />
<line x1="504" y1="40" x2="504" y2="46" stroke="#6E6E75" stroke-width="0.75" />
<line x1="512" y1="40" x2="512" y2="43" stroke="#6E6E75" stroke-width="0.75" />
<line x1="520" y1="40" x2="520" y2="43" stroke="#6E6E75" stroke-width="0.75" />
<line x1="528" y1="40" x2="528" y2="43" stroke="#6E6E75" stroke-width="0.75" />
<line x1="536" y1="40" x2="536" y2="43" stroke="#6E6E75" stroke-width="0.75" />
<line x1="544" y1="40" x2="544" y2="46" stroke="#6E6E75" stroke-width="0.75" />
<line x1="552" y1="40" x2="552" y2="43" stroke="#6E6E75" stroke-width="0.75" />
<line x1="560" y1="40" x2="560" y2="43" stroke="#6E6E75" stroke-width="0.75" />
<line x1="568" y1="40" x2="568" y2="43" stroke="#6E6E75" stroke-width="0.75" />
<line x1="576" y1="40" x2="576" y2="43" stroke="#6E6E75" stroke-width="0.75" />
<line x1="584" y1="40" x2="584" y2="46" stroke="#6E6E75" stroke-width="0.75" />
<line x1="592" y1="40" x2="592" y2="43" stroke="#6E6E75" stroke-width="0.75" />
<line x1="600" y1="40" x2="600" y2="43" stroke="#6E6E75" stroke-width="0.75" />
<line x1="608" y1="40" x2="608" y2="43" stroke="#6E6E75" stroke-width="0.75" />
<line x1="616" y1="40" x2="616" y2="43" stroke="#6E6E75" stroke-width="0.75" />
<line x1="624" y1="40" x2="624" y2="46" stroke="#6E6E75" stroke-width="0.75" />
<line x1="632" y1="40" x2="632" y2="43" stroke="#6E6E75" stroke-width="0.75" />
<line x1="640" y1="40" x2="640" y2="43" stroke="#6E6E75" stroke-width="0.75" />
<line x1="648" y1="40" x2="648" y2="43" stroke="#6E6E75" stroke-width="0.75" />
<line x1="656" y1="40" x2="656" y2="43" stroke="#6E6E75" stroke-width="0.75" />
<line x1="664" y1="40" x2="664" y2="46" stroke="#6E6E75" stroke-width="0.75" />
<line x1="672" y1="40" x2="672" y2="43" stroke="#6E6E75" stroke-width="0.75" />
<line x1="680" y1="40" x2="680" y2="43" stroke="#6E6E75" stroke-width="0.75" />
<line x1="688" y1="40" x2="688" y2="43" stroke="#6E6E75" stroke-width="0.75" />
<line x1="696" y1="40" x2="696" y2="43" stroke="#6E6E75" stroke-width="0.75" />
<line x1="24" y1="40" x2="30" y2="40" stroke="#6E6E75" stroke-width="0.75" />
<line x1="24" y1="48" x2="27" y2="48" stroke="#6E6E75" stroke-width="0.75" />
<line x1="24" y1="56" x2="27" y2="56" stroke="#6E6E75" stroke-width="0.75" />
<line x1="24" y1="64" x2="27" y2="64" stroke="#6E6E75" stroke-width="0.75" />
<line x1="24" y1="72" x2="27" y2="72" stroke="#6E6E75" stroke-width="0.75" />
<line x1="24" y1="80" x2="30" y2="80" stroke="#6E6E75" stroke-width="0.75" />
<line x1="24" y1="88" x2="27" y2="88" stroke="#6E6E75" stroke-width="0.75" />
<line x1="24" y1="96" x2="27" y2="96" stroke="#6E6E75" stroke-width="0.75" />
<line x1="24" y1="104" x2="27" y2="104" stroke="#6E6E75" stroke-width="0.75" />
<line x1="24" y1="112" x2="27" y2="112" stroke="#6E6E75" stroke-width="0.75" />
<line x1="24" y1="120" x2="30" y2="120" stroke="#6E6E75" stroke-width="0.75" />
<line x1="24" y1="128" x2="27" y2="128" stroke="#6E6E75" stroke-width="0.75" />
<line x1="24" y1="136" x2="27" y2="136" stroke="#6E6E75" stroke-width="0.75" />
<line x1="24" y1="144" x2="27" y2="144" stroke="#6E6E75" stroke-width="0.75" />
<line x1="24" y1="152" x2="27" y2="152" stroke="#6E6E75" stroke-width="0.75" />
<line x1="24" y1="160" x2="30" y2="160" stroke="#6E6E75" stroke-width="0.75" />
<line x1="24" y1="168" x2="27" y2="168" stroke="#6E6E75" stroke-width="0.75" />
<line x1="24" y1="176" x2="27" y2="176" stroke="#6E6E75" stroke-width="0.75" />
<line x1="24" y1="184" x2="27" y2="184" stroke="#6E6E75" stroke-width="0.75" />
<line x1="24" y1="192" x2="27" y2="192" stroke="#6E6E75" stroke-width="0.75" />
<line x1="24" y1="200" x2="30" y2="200" stroke="#6E6E75" stroke-width="0.75" />
<line x1="24" y1="208" x2="27" y2="208" stroke="#6E6E75" stroke-width="0.75" />
<line x1="24" y1="216" x2="27" y2="216" stroke="#6E6E75" stroke-width="0.75" />
<line x1="24" y1="224" x2="27" y2="224" stroke="#6E6E75" stroke-width="0.75" />
<line x1="24" y1="232" x2="27" y2="232" stroke="#6E6E75" stroke-width="0.75" />
<line x1="24" y1="240" x2="30" y2="240" stroke="#6E6E75" stroke-width="0.75" />
<line x1="24" y1="248" x2="27" y2="248" stroke="#6E6E75" stroke-width="0.75" />
<line x1="24" y1="256" x2="27" y2="256" stroke="#6E6E75" stroke-width="0.75" />
<line x1="24" y1="264" x2="27" y2="264" stroke="#6E6E75" stroke-width="0.75" />
<line x1="24" y1="272" x2="27" y2="272" stroke="#6E6E75" stroke-width="0.75" />
<line x1="24" y1="280" x2="30" y2="280" stroke="#6E6E75" stroke-width="0.75" />
<line x1="24" y1="288" x2="27" y2="288" stroke="#6E6E75" stroke-width="0.75" />
<line x1="24" y1="296" x2="27" y2="296" stroke="#6E6E75" stroke-width="0.75" />
<line x1="24" y1="304" x2="27" y2="304" stroke="#6E6E75" stroke-width="0.75" />
<line x1="24" y1="312" x2="27" y2="312" stroke="#6E6E75" stroke-width="0.75" />
<line x1="24" y1="320" x2="30" y2="320" stroke="#6E6E75" stroke-width="0.75" />
<line x1="24" y1="328" x2="27" y2="328" stroke="#6E6E75" stroke-width="0.75" />
<line x1="24" y1="336" x2="27" y2="336" stroke="#6E6E75" stroke-width="0.75" />
<line x1="24" y1="344" x2="27" y2="344" stroke="#6E6E75" stroke-width="0.75" />
<line x1="24" y1="352" x2="27" y2="352" stroke="#6E6E75" stroke-width="0.75" />
<line x1="24" y1="360" x2="30" y2="360" stroke="#6E6E75" stroke-width="0.75" />
<line x1="24" y1="368" x2="27" y2="368" stroke="#6E6E75" stroke-width="0.75" />
<line x1="24" y1="376" x2="27" y2="376" stroke="#6E6E75" stroke-width="0.75" />
<line x1="24" y1="384" x2="27" y2="384" stroke="#6E6E75" stroke-width="0.75" />
<line x1="24" y1="392" x2="27" y2="392" stroke="#6E6E75" stroke-width="0.75" />
<line x1="24" y1="400" x2="30" y2="400" stroke="#6E6E75" stroke-width="0.75" />
<line x1="24" y1="408" x2="27" y2="408" stroke="#6E6E75" stroke-width="0.75" />
<line x1="24" y1="416" x2="27" y2="416" stroke="#6E6E75" stroke-width="0.75" />
<line x1="24" y1="424" x2="27" y2="424" stroke="#6E6E75" stroke-width="0.75" />
<line x1="24" y1="432" x2="27" y2="432" stroke="#6E6E75" stroke-width="0.75" />
<line x1="24" y1="440" x2="30" y2="440" stroke="#6E6E75" stroke-width="0.75" />
<line x1="24" y1="448" x2="27" y2="448" stroke="#6E6E75" stroke-width="0.75" />
<line x1="24" y1="456" x2="27" y2="456" stroke="#6E6E75" stroke-width="0.75" />
<line x1="24" y1="40" x2="24" y2="456" stroke="#6E6E75" stroke-width="0.75" />
<line x1="690" y1="456" x2="702" y2="456" stroke="#141416" stroke-width="0.75" />
<line x1="696" y1="450" x2="696" y2="462" stroke="#141416" stroke-width="0.75" />
<text x="40" y="460" font-family="'Geist Mono', ui-monospace, monospace" font-size="8" fill="#6E6E75" text-anchor="start" font-weight="400" letter-spacing="1.4">ISOMER · COPPER VERDIGRIS</text>
<text x="680" y="460" font-family="'Geist Mono', ui-monospace, monospace" font-size="8" fill="#6E6E75" text-anchor="end" font-weight="400" letter-spacing="1.4">SCALE 1:1</text></g><rect x="264.0" y="104" width="100.0" height="272" fill="none" stroke="#E3E3E5" stroke-width="1" />
<text x="272.0" y="96" font-family="'Geist Mono', ui-monospace, monospace" font-size="8" fill="#141416" text-anchor="start" font-weight="600" letter-spacing="0.8">WEEK 1</text>
<rect x="364.0" y="104" width="100.0" height="272" fill="#ECECEA" stroke="#E3E3E5" stroke-width="1" />
<text x="372.0" y="96" font-family="'Geist Mono', ui-monospace, monospace" font-size="8" fill="#141416" text-anchor="start" font-weight="600" letter-spacing="0.8">WEEK 2</text>
<rect x="464.0" y="104" width="100.0" height="272" fill="none" stroke="#E3E3E5" stroke-width="1" />
<text x="472.0" y="96" font-family="'Geist Mono', ui-monospace, monospace" font-size="8" fill="#141416" text-anchor="start" font-weight="600" letter-spacing="0.8">WEEK 3</text>
<rect x="564.0" y="104" width="100.0" height="272" fill="#ECECEA" stroke="#E3E3E5" stroke-width="1" />
<text x="572.0" y="96" font-family="'Geist Mono', ui-monospace, monospace" font-size="8" fill="#141416" text-anchor="start" font-weight="600" letter-spacing="0.8">WEEK 4</text>
<rect x="72" y="128" width="144" height="32" fill="#FFFFFF" stroke="#141416" stroke-width="1" />
<text x="82" y="148" font-family="'Geist Mono', ui-monospace, monospace" font-size="8" fill="#141416" text-anchor="start" font-weight="500" letter-spacing="0.8">READ-ONLY ACCESS</text>
<rect x="72" y="184" width="144" height="32" fill="#FFFFFF" stroke="#141416" stroke-width="1" />
<text x="82" y="204" font-family="'Geist Mono', ui-monospace, monospace" font-size="8" fill="#141416" text-anchor="start" font-weight="500" letter-spacing="0.8">LOSS RUNS</text>
<rect x="72" y="240" width="144" height="32" fill="#FFFFFF" stroke="#141416" stroke-width="1" />
<text x="82" y="260" font-family="'Geist Mono', ui-monospace, monospace" font-size="8" fill="#141416" text-anchor="start" font-weight="500" letter-spacing="0.8">ADJUSTER HOURS</text>
<path d="M224 128 H232 V272 H224" stroke="#6E6E75" stroke-width="1" fill="none" stroke-linejoin="miter" stroke-linecap="square" />
<line x1="232" y1="200" x2="262" y2="200" stroke="#141416" stroke-width="1" />
<path d="M255 195 L262 200 L255 205" stroke="#141416" stroke-width="1" fill="none" stroke-linejoin="miter" stroke-linecap="square" />
<text x="72" y="96" font-family="'Geist Mono', ui-monospace, monospace" font-size="8" fill="#6E6E75" text-anchor="start" font-weight="400" letter-spacing="0.8">INPUTS</text>
<rect x="270.0" y="124" width="388.0" height="32" fill="#E9F2F1" stroke="#3F8A85" stroke-width="1.25" />
<text x="280.0" y="144" font-family="'Geist Mono', ui-monospace, monospace" font-size="8" fill="#1F4F4C" text-anchor="start" font-weight="600" letter-spacing="0.8">FLAGS ON LIVE CLAIMS</text>
<rect x="370.0" y="184" width="288.0" height="32" fill="#FFFFFF" stroke="#141416" stroke-width="1" />
<text x="380.0" y="204" font-family="'Geist Mono', ui-monospace, monospace" font-size="8" fill="#141416" text-anchor="start" font-weight="600" letter-spacing="0.8">CAUGHT-IN-TIME BASELINE</text>
<rect x="470.0" y="244" width="188.0" height="32" fill="#FFFFFF" stroke="#141416" stroke-width="1" />
<text x="480.0" y="264" font-family="'Geist Mono', ui-monospace, monospace" font-size="8" fill="#141416" text-anchor="start" font-weight="600" letter-spacing="0.8">RESERVE LAG BY CLAIM</text>
<rect x="570.0" y="304" width="88.0" height="32" fill="#3F8A85" stroke="#1F4F4C" stroke-width="1.25" />
<text x="580.0" y="324" font-family="'Geist Mono', ui-monospace, monospace" font-size="8" fill="#FFFFFF" text-anchor="start" font-weight="600" letter-spacing="0.8">BUSINESS CASE · $ AND POINTS</text>
<text x="264" y="404" font-family="'Geist Mono', ui-monospace, monospace" font-size="8" fill="#2E6B68" text-anchor="start" font-weight="500" letter-spacing="0.8">ACTUALS REPLACE ASSUMPTIONS · FROM WEEK ONE</text></svg>