<svg xmlns="http://www.w3.org/2000/svg" width="320" height="320" viewBox="0 0 320 320" role="img"><title>Attorney representation</title><style>@import url("https://fonts.googleapis.com/css2?family=Geist:wght@400;500;600&amp;family=Geist+Mono:wght@400;500;600&amp;display=swap");</style><rect width="320" height="320" fill="#F6F6F5"/><defs>
<pattern id="ac04attorneyrep-hatch" width="6" height="6" patternUnits="userSpaceOnUse" patternTransform="rotate(45)"><line x1="0" y1="0" x2="0" y2="6" stroke="#B4602F" stroke-width="1.2"/></pattern>
<pattern id="ac04attorneyrep-hatchv" width="6" height="6" patternUnits="userSpaceOnUse" patternTransform="rotate(45)"><line x1="0" y1="0" x2="0" y2="6" stroke="#3F8A85" stroke-width="1.2"/></pattern>
<pattern id="ac04attorneyrep-dots" width="24" height="24" patternUnits="userSpaceOnUse"><rect x="11.5" y="11.5" width="1" height="1" fill="#6E6E75" opacity="0.45"/></pattern>
<pattern id="ac04attorneyrep-micro" width="4" height="4" patternUnits="userSpaceOnUse"><rect x="0" y="0" width="3" height="3" fill="#6E6E75" opacity="0.55"/></pattern>
</defs><g shape-rendering="crispEdges"></g><rect x="48" y="80" width="72" height="72" fill="#FFFFFF" stroke="#141416" stroke-width="1.25" />
<circle cx="84" cy="102.1" r="9.6" fill="#ECECEA" stroke="#141416" stroke-width="1.25"/><path d="M63.8 140 V133.3 A20.2 14.4 0 0 1 104.2 133.3 V140 Z" fill="#ECECEA" stroke="#141416" stroke-width="1.25" stroke-linejoin="miter"/>
<text x="48" y="172" font-family="'Geist Mono', ui-monospace, monospace" font-size="8" fill="#141416" text-anchor="start" font-weight="500" letter-spacing="0.8">CLAIMANT</text>
<rect x="200" y="80" width="72" height="72" fill="#F2DCCB" stroke="#B4602F" stroke-width="1.25" />
<circle cx="236" cy="102.1" r="9.6" fill="#FFFFFF" stroke="#B4602F" stroke-width="1.25"/><path d="M215.8 140 V133.3 A20.2 14.4 0 0 1 256.2 133.3 V140 Z" fill="#FFFFFF" stroke="#B4602F" stroke-width="1.25" stroke-linejoin="miter"/>
<rect x="229" y="128" width="14" height="8" fill="#B4602F" stroke="none" stroke-width="0" />
<text x="200" y="172" font-family="'Geist Mono', ui-monospace, monospace" font-size="8" fill="#8E4720" text-anchor="start" font-weight="600" letter-spacing="0.8">COUNSEL</text>
<path d="M120 116 L200 116" stroke="#B4602F" stroke-width="1.5" fill="none" stroke-linejoin="miter" stroke-linecap="square" />
<rect x="156.0" y="112.0" width="8" height="8" fill="#B4602F" stroke="none" stroke-width="1" />
<line x1="236" y1="180" x2="236" y2="216" stroke="#3F8A85" stroke-width="1.5" />
<rect x="172" y="216" width="128" height="44" fill="#E9F2F1" stroke="#3F8A85" stroke-width="1.25" />
<text x="186" y="236" font-family="'Geist Mono', ui-monospace, monospace" font-size="8" fill="#1F4F4C" text-anchor="start" font-weight="600" letter-spacing="0.8">EARLY CONTACT</text>
<text x="186" y="250" font-family="'Geist Mono', ui-monospace, monospace" font-size="8" fill="#2E6B68" text-anchor="start" font-weight="400" letter-spacing="0.8">EVAL BEFORE SUIT</text></svg>