<svg xmlns="http://www.w3.org/2000/svg" width="480" height="480" viewBox="0 0 480 480" role="img"><title>Continuous</title><style>@import url("https://fonts.googleapis.com/css2?family=Geist:wght@400;500;600&amp;family=Geist+Mono:wght@400;500;600&amp;display=swap");</style><rect width="480" height="480" fill="#F6F6F5"/><defs>
<pattern id="pl05continuous-hatch" width="6" height="6" patternUnits="userSpaceOnUse" patternTransform="rotate(45)"><line x1="0" y1="0" x2="0" y2="6" stroke="#B4602F" stroke-width="1.2"/></pattern>
<pattern id="pl05continuous-hatchv" width="6" height="6" patternUnits="userSpaceOnUse" patternTransform="rotate(45)"><line x1="0" y1="0" x2="0" y2="6" stroke="#3F8A85" stroke-width="1.2"/></pattern>
<pattern id="pl05continuous-dots" width="24" height="24" patternUnits="userSpaceOnUse"><rect x="11.5" y="11.5" width="1" height="1" fill="#6E6E75" opacity="0.45"/></pattern>
<pattern id="pl05continuous-micro" width="4" height="4" patternUnits="userSpaceOnUse"><rect x="0" y="0" width="3" height="3" fill="#6E6E75" opacity="0.55"/></pattern>
</defs><g shape-rendering="crispEdges"></g><rect x="64" y="72" width="368" height="14" fill="#D3E6E4" stroke="#3F8A85" stroke-width="1" />
<text x="64" y="104" font-family="'Geist Mono', ui-monospace, monospace" font-size="9" fill="#2E6B68" text-anchor="start" font-weight="500" letter-spacing="0.8">COVERAGE · EVERY CHANNEL · 24/7</text>
<text x="64" y="143" font-family="'Geist Mono', ui-monospace, monospace" font-size="8" fill="#141416" text-anchor="start" font-weight="500" letter-spacing="0.8">EMAIL</text>
<line x1="136" y1="140" x2="432" y2="140" stroke="#6E6E75" stroke-width="0.75" />
<rect x="142.9" y="128" width="10" height="14" fill="#FFFFFF" stroke="#141416" stroke-width="0.75" />
<line x1="147.9" y1="146" x2="147.9" y2="152" stroke="#3F8A85" stroke-width="1.25" />
<rect x="165.0" y="128" width="10" height="14" fill="#FFFFFF" stroke="#141416" stroke-width="0.75" />
<line x1="170.0" y1="146" x2="170.0" y2="152" stroke="#3F8A85" stroke-width="1.25" />
<rect x="187.1" y="128" width="10" height="14" fill="#FFFFFF" stroke="#141416" stroke-width="0.75" />
<line x1="192.1" y1="146" x2="192.1" y2="152" stroke="#3F8A85" stroke-width="1.25" />
<rect x="231.3" y="128" width="10" height="14" fill="#FFFFFF" stroke="#141416" stroke-width="0.75" />
<line x1="236.3" y1="146" x2="236.3" y2="152" stroke="#3F8A85" stroke-width="1.25" />
<rect x="258.5" y="128" width="10" height="14" fill="#FFFFFF" stroke="#141416" stroke-width="0.75" />
<line x1="263.5" y1="146" x2="263.5" y2="152" stroke="#3F8A85" stroke-width="1.25" />
<rect x="308.5" y="126" width="12" height="18" fill="#F2DCCB" stroke="#B4602F" stroke-width="1.25" />
<line x1="314.5" y1="146" x2="314.5" y2="156" stroke="#B4602F" stroke-width="1.25" />
<rect x="333.29999999999995" y="128" width="10" height="14" fill="#FFFFFF" stroke="#141416" stroke-width="0.75" />
<line x1="338.29999999999995" y1="146" x2="338.29999999999995" y2="152" stroke="#3F8A85" stroke-width="1.25" />
<rect x="386.0" y="128" width="10" height="14" fill="#FFFFFF" stroke="#141416" stroke-width="0.75" />
<line x1="391.0" y1="146" x2="391.0" y2="152" stroke="#3F8A85" stroke-width="1.25" />
<rect x="411.5" y="128" width="10" height="14" fill="#FFFFFF" stroke="#141416" stroke-width="0.75" />
<line x1="416.5" y1="146" x2="416.5" y2="152" stroke="#3F8A85" stroke-width="1.25" />
<text x="64" y="207" font-family="'Geist Mono', ui-monospace, monospace" font-size="8" fill="#141416" text-anchor="start" font-weight="500" letter-spacing="0.8">PORTAL</text>
<line x1="136" y1="204" x2="432" y2="204" stroke="#6E6E75" stroke-width="0.75" />
<rect x="156.5" y="192" width="10" height="14" fill="#FFFFFF" stroke="#141416" stroke-width="0.75" />
<line x1="161.5" y1="210" x2="161.5" y2="216" stroke="#3F8A85" stroke-width="1.25" />
<rect x="209.2" y="192" width="10" height="14" fill="#FFFFFF" stroke="#141416" stroke-width="0.75" />
<line x1="214.2" y1="210" x2="214.2" y2="216" stroke="#3F8A85" stroke-width="1.25" />
<rect x="275.5" y="192" width="10" height="14" fill="#FFFFFF" stroke="#141416" stroke-width="0.75" />
<line x1="280.5" y1="210" x2="280.5" y2="216" stroke="#3F8A85" stroke-width="1.25" />
<rect x="352.0" y="192" width="10" height="14" fill="#FFFFFF" stroke="#141416" stroke-width="0.75" />
<line x1="357.0" y1="210" x2="357.0" y2="216" stroke="#3F8A85" stroke-width="1.25" />
<rect x="401.3" y="192" width="10" height="14" fill="#FFFFFF" stroke="#141416" stroke-width="0.75" />
<line x1="406.3" y1="210" x2="406.3" y2="216" stroke="#3F8A85" stroke-width="1.25" />
<text x="64" y="271" font-family="'Geist Mono', ui-monospace, monospace" font-size="8" fill="#141416" text-anchor="start" font-weight="500" letter-spacing="0.8">MAIL · OCR</text>
<line x1="136" y1="268" x2="432" y2="268" stroke="#6E6E75" stroke-width="0.75" />
<rect x="175.2" y="256" width="10" height="14" fill="#FFFFFF" stroke="#141416" stroke-width="0.75" />
<line x1="180.2" y1="274" x2="180.2" y2="280" stroke="#3F8A85" stroke-width="1.25" />
<rect x="250.0" y="256" width="10" height="14" fill="#FFFFFF" stroke="#141416" stroke-width="0.75" />
<line x1="255.0" y1="274" x2="255.0" y2="280" stroke="#3F8A85" stroke-width="1.25" />
<rect x="300.0" y="254" width="12" height="18" fill="#F2DCCB" stroke="#B4602F" stroke-width="1.25" />
<line x1="306.0" y1="274" x2="306.0" y2="284" stroke="#B4602F" stroke-width="1.25" />
<rect x="369.0" y="256" width="10" height="14" fill="#FFFFFF" stroke="#141416" stroke-width="0.75" />
<line x1="374.0" y1="274" x2="374.0" y2="280" stroke="#3F8A85" stroke-width="1.25" />
<text x="64" y="335" font-family="'Geist Mono', ui-monospace, monospace" font-size="8" fill="#141416" text-anchor="start" font-weight="500" letter-spacing="0.8">API · EDI</text>
<line x1="136" y1="332" x2="432" y2="332" stroke="#6E6E75" stroke-width="0.75" />
<rect x="148.0" y="320" width="10" height="14" fill="#FFFFFF" stroke="#141416" stroke-width="0.75" />
<line x1="153.0" y1="338" x2="153.0" y2="344" stroke="#3F8A85" stroke-width="1.25" />
<rect x="190.5" y="320" width="10" height="14" fill="#FFFFFF" stroke="#141416" stroke-width="0.75" />
<line x1="195.5" y1="338" x2="195.5" y2="344" stroke="#3F8A85" stroke-width="1.25" />
<rect x="224.5" y="320" width="10" height="14" fill="#FFFFFF" stroke="#141416" stroke-width="0.75" />
<line x1="229.5" y1="338" x2="229.5" y2="344" stroke="#3F8A85" stroke-width="1.25" />
<rect x="267.0" y="320" width="10" height="14" fill="#FFFFFF" stroke="#141416" stroke-width="0.75" />
<line x1="272.0" y1="338" x2="272.0" y2="344" stroke="#3F8A85" stroke-width="1.25" />
<rect x="292.5" y="320" width="10" height="14" fill="#FFFFFF" stroke="#141416" stroke-width="0.75" />
<line x1="297.5" y1="338" x2="297.5" y2="344" stroke="#3F8A85" stroke-width="1.25" />
<rect x="343.5" y="320" width="10" height="14" fill="#FFFFFF" stroke="#141416" stroke-width="0.75" />
<line x1="348.5" y1="338" x2="348.5" y2="344" stroke="#3F8A85" stroke-width="1.25" />
<rect x="377.5" y="320" width="10" height="14" fill="#FFFFFF" stroke="#141416" stroke-width="0.75" />
<line x1="382.5" y1="338" x2="382.5" y2="344" stroke="#3F8A85" stroke-width="1.25" />
<rect x="420.0" y="320" width="10" height="14" fill="#FFFFFF" stroke="#141416" stroke-width="0.75" />
<line x1="425.0" y1="338" x2="425.0" y2="344" stroke="#3F8A85" stroke-width="1.25" />
<line x1="136" y1="400" x2="432" y2="400" stroke="#141416" stroke-width="1" />
<line x1="136.0" y1="400" x2="136.0" y2="406" stroke="#141416" stroke-width="0.75" />
<text x="136.0" y="418" font-family="'Geist Mono', ui-monospace, monospace" font-size="8" fill="#6E6E75" text-anchor="middle" font-weight="400" letter-spacing="0.8">00:00</text>
<line x1="160.66666666666666" y1="400" x2="160.66666666666666" y2="403" stroke="#141416" stroke-width="0.75" />
<line x1="185.33333333333334" y1="400" x2="185.33333333333334" y2="403" stroke="#141416" stroke-width="0.75" />
<line x1="210.0" y1="400" x2="210.0" y2="406" stroke="#141416" stroke-width="0.75" />
<text x="210.0" y="418" font-family="'Geist Mono', ui-monospace, monospace" font-size="8" fill="#6E6E75" text-anchor="middle" font-weight="400" letter-spacing="0.8">06:00</text>
<line x1="234.66666666666669" y1="400" x2="234.66666666666669" y2="403" stroke="#141416" stroke-width="0.75" />
<line x1="259.3333333333333" y1="400" x2="259.3333333333333" y2="403" stroke="#141416" stroke-width="0.75" />
<line x1="284.0" y1="400" x2="284.0" y2="406" stroke="#141416" stroke-width="0.75" />
<text x="284.0" y="418" font-family="'Geist Mono', ui-monospace, monospace" font-size="8" fill="#6E6E75" text-anchor="middle" font-weight="400" letter-spacing="0.8">12:00</text>
<line x1="308.66666666666663" y1="400" x2="308.66666666666663" y2="403" stroke="#141416" stroke-width="0.75" />
<line x1="333.33333333333337" y1="400" x2="333.33333333333337" y2="403" stroke="#141416" stroke-width="0.75" />
<line x1="358.0" y1="400" x2="358.0" y2="406" stroke="#141416" stroke-width="0.75" />
<text x="358.0" y="418" font-family="'Geist Mono', ui-monospace, monospace" font-size="8" fill="#6E6E75" text-anchor="middle" font-weight="400" letter-spacing="0.8">18:00</text>
<line x1="382.66666666666663" y1="400" x2="382.66666666666663" y2="403" stroke="#141416" stroke-width="0.75" />
<line x1="407.3333333333333" y1="400" x2="407.3333333333333" y2="403" stroke="#141416" stroke-width="0.75" />
<line x1="432.0" y1="400" x2="432.0" y2="406" stroke="#141416" stroke-width="0.75" />
<text x="432.0" y="418" font-family="'Geist Mono', ui-monospace, monospace" font-size="8" fill="#6E6E75" text-anchor="middle" font-weight="400" letter-spacing="0.8">24:00</text>
<rect x="61.0" y="417.0" width="6" height="6" fill="#3F8A85" stroke="none" stroke-width="1" />
<text x="74" y="423" font-family="'Geist Mono', ui-monospace, monospace" font-size="8" fill="#6E6E75" text-anchor="start" font-weight="400" letter-spacing="0.8">EVALUATED</text>
<rect x="153.0" y="417.0" width="6" height="6" fill="#B4602F" stroke="none" stroke-width="1" />
<text x="166" y="423" font-family="'Geist Mono', ui-monospace, monospace" font-size="8" fill="#6E6E75" text-anchor="start" font-weight="400" letter-spacing="0.8">FLAGGED</text></svg>