<svg width="80" height="80" viewBox="0 0 80 80" fill="none" xmlns="http://www.w3.org/2000/svg">
<g clip-path="url(#clip0_4072_17193)">
<path d="M39.0606 42.8381L41.4307 44.3381C44.4407 46.0781 48.2607 45.5481 50.6807 43.0181C51.4707 42.1881 51.3207 40.8381 50.3907 40.1681L38.4608 31.5781C35.8408 29.6981 31.6008 28.8781 27.4708 28.9381C23.3408 28.9981 20.0808 28.6181 16.9508 26.6481L16.5606 26.3981L2.70076 44.6481C6.12076 47.1381 9.08076 50.2081 11.4508 53.7181C13.4308 56.6581 15.8306 59.2781 18.5606 61.5181" fill="#FFE0D4"/>
<path d="M38.8007 73.278L34.4909 77.0781C33.1409 78.2681 31.1309 78.2981 29.7409 77.1581C28.0209 75.7381 27.9608 73.118 29.6208 71.618" stroke="#1D232D" stroke-width="2" stroke-miterlimit="10"/>
<path d="M46.9908 66.058L38.8006 73.278" stroke="#1D232D" stroke-width="2" stroke-miterlimit="10"/>
<path d="M38.8007 73.2781C37.2707 74.6181 37.3008 77.0081 38.8708 78.3081C40.1108 79.3481 41.9208 79.3381 43.1508 78.2881L59.5707 64.4681C67.9107 57.4781 70.6807 50.2981 77.3007 44.6581" stroke="#1D232D" stroke-width="2" stroke-miterlimit="10"/>
<path d="M29.6107 71.608L39.3006 62.858" stroke="#1D232D" stroke-width="2" stroke-miterlimit="10"/>
<path d="M22.4607 67.8881C20.7807 69.4181 20.8205 72.0681 22.5405 73.5481C23.9805 74.7881 26.1205 74.7681 27.5405 73.4881L29.6206 71.6081" stroke="#1D232D" stroke-width="2" stroke-miterlimit="10"/>
<path d="M2.70076 44.6481C6.12076 47.1381 9.08076 50.2081 11.4508 53.7181C13.4308 56.6581 15.8306 59.2781 18.5606 61.5181" stroke="#1D232D" stroke-width="2" stroke-miterlimit="10"/>
<path d="M32.9307 38.9681L41.4207 44.3381C44.4307 46.0781 48.2507 45.5481 50.6707 43.0181C51.4607 42.1881 51.3107 40.8381 50.3807 40.1681L38.4508 31.5781C35.8308 29.6981 31.5908 28.8781 27.4608 28.9381C23.3308 28.9981 20.0708 28.6181 16.9408 26.6481L16.5506 26.3981" stroke="#1D232D" stroke-width="2" stroke-miterlimit="10"/>
<path d="M40.6607 33.1581L42.8607 31.5681C45.4807 29.6881 49.7207 28.868 53.8507 28.928C57.9807 28.988 61.2407 28.6081 64.3707 26.6381L64.7608 26.3881" stroke="#1D232D" stroke-width="2" stroke-miterlimit="10"/>
<path d="M24.5907 65.948C23.1407 67.268 20.9109 67.218 19.5209 65.848C18.1009 64.448 18.0508 62.168 19.4108 60.708L39.0607 42.848" stroke="#1D232D" stroke-width="2" stroke-miterlimit="10"/>
<path d="M33.7508 57.6281L22.4608 67.8881" stroke="#1D232D" stroke-width="2" stroke-miterlimit="10"/>
<path d="M40.1607 21.188L32.9508 25.0681L34.4107 17.0081L28.5008 11.3581L36.6107 10.248L40.1607 2.87805L43.7208 10.248L51.8306 11.3581L45.9107 17.0081L47.3707 25.0681L40.1607 21.188Z" fill="#FF9E6E"/>
<path d="M40.1607 21.188L32.9508 25.0681L34.4107 17.0081L28.5008 11.3581L36.6107 10.248L40.1607 2.87805L43.7208 10.248L51.8306 11.3581L45.9107 17.0081L47.3707 25.0681L40.1607 21.188Z" stroke="#1D232D" stroke-width="2" stroke-miterlimit="10"/>
<path d="M50.6307 18.5281L56.8807 20.5781" stroke="#1D232D" stroke-width="2" stroke-miterlimit="10"/>
<path d="M50.5008 0.918091L46.5008 6.44809" stroke="#1D232D" stroke-width="2" stroke-miterlimit="10"/>
<path d="M33.4408 5.91809L29.8306 0.918091" stroke="#1D232D" stroke-width="2" stroke-miterlimit="10"/>
<path d="M23.4508 20.5781L29.8907 18.4681" stroke="#1D232D" stroke-width="2" stroke-miterlimit="10"/>
</g>
<defs>
<clipPath id="clip0_4072_17193">
<rect width="80" height="80" fill="white"/>
</clipPath>
</defs>
</svg>
