<svg width="160" height="160" viewBox="0 0 160 160" fill="none" xmlns="http://www.w3.org/2000/svg">
<!-- Generated by Claude (Anthropic AI) in the isomer.ai illustration style. Not drawn by a designer. -->
<title>Adjuster workload</title>
<path d="M8 118H62V150H8Z" fill="#F5F9D6" stroke="#000441" stroke-width="2" stroke-miterlimit="10"/>
<path d="M8 118 L35.0 137.2 L62 118" stroke="#000441" stroke-width="2" stroke-miterlimit="10"/>
<path d="M8 100H62V132H8Z" fill="white" stroke="#000441" stroke-width="2" stroke-miterlimit="10"/>
<path d="M8 100 L35.0 119.2 L62 100" stroke="#000441" stroke-width="2" stroke-miterlimit="10"/>
<path d="M8 82H62V114H8Z" fill="#F5F9D6" stroke="#000441" stroke-width="2" stroke-miterlimit="10"/>
<path d="M8 82 L35.0 101.2 L62 82" stroke="#000441" stroke-width="2" stroke-miterlimit="10"/>
<path d="M8 64H62V96H8Z" fill="white" stroke="#000441" stroke-width="2" stroke-miterlimit="10"/>
<path d="M8 64 L35.0 83.2 L62 64" stroke="#000441" stroke-width="2" stroke-miterlimit="10"/>
<path d="M8 46H62V78H8Z" fill="#F5F9D6" stroke="#000441" stroke-width="2" stroke-miterlimit="10"/>
<path d="M8 46 L35.0 65.2 L62 46" stroke="#000441" stroke-width="2" stroke-miterlimit="10"/>
<path d="M8 28H62V60H8Z" fill="white" stroke="#000441" stroke-width="2" stroke-miterlimit="10"/>
<path d="M8 28 L35.0 47.2 L62 28" stroke="#000441" stroke-width="2" stroke-miterlimit="10"/>
<path d="M70 86 L90 86" stroke="#000441" stroke-width="2" stroke-miterlimit="10"/>
<path d="M84 80 L90 86 L84 92" stroke="#000441" stroke-width="2" stroke-miterlimit="10"/>
<path d="M89.0 100C89.0 78 102.95 70 120 70C137.05 70 151.0 78 151.0 100Z" fill="#F5F9D6" stroke="#000441" stroke-width="2" stroke-miterlimit="10"/>
<circle cx="120" cy="49" r="15" fill="#D5F22A" stroke="#000441" stroke-width="2" stroke-miterlimit="10"/>
<path d="M98 112H144V142H98Z" fill="white" stroke="#000441" stroke-width="2" stroke-miterlimit="10"/>
<path d="M101 117 L121.0 129.4 L141 117" stroke="#DADFE8" stroke-width="7" stroke-miterlimit="10"/>
<path d="M98 112 L121.0 130.0 L144 112" stroke="#000441" stroke-width="2" stroke-miterlimit="10"/>
<circle cx="144" cy="62" r="13" fill="#D5F22A" stroke="#000441" stroke-width="2" stroke-miterlimit="10"/>
<path d="M137.5 62 L142.44 67.46 L151.15 56.54" stroke="#000441" stroke-width="2" stroke-miterlimit="10"/>
</svg>
