<svg width="160" height="160" viewBox="0 0 160 160" fill="none" xmlns="http://www.w3.org/2000/svg">
<!-- Generated by Claude (Anthropic AI) in the isomer.ai illustration style. Not drawn by a designer. -->
<title>Open claims layer</title>
<path d="M48 42 L60 56" stroke="#000441" stroke-width="2" stroke-miterlimit="10"/>
<path d="M112 42 L100 56" stroke="#000441" stroke-width="2" stroke-miterlimit="10"/>
<path d="M48 118 L60 104" stroke="#000441" stroke-width="2" stroke-miterlimit="10"/>
<path d="M112 118 L100 104" stroke="#000441" stroke-width="2" stroke-miterlimit="10"/>
<path d="M12 14H48V42H12Z" fill="white" stroke="#000441" stroke-width="2" stroke-miterlimit="10"/>
<path d="M20 24 L40 24" stroke="#000441" stroke-width="2" stroke-miterlimit="10"/>
<path d="M20 32 L34 32" stroke="#000441" stroke-width="2" stroke-miterlimit="10"/>
<path d="M112 14H148V42H112Z" fill="white" stroke="#000441" stroke-width="2" stroke-miterlimit="10"/>
<path d="M122 36 L122 28" stroke="#000441" stroke-width="2" stroke-miterlimit="10"/>
<path d="M130 36 L130 22" stroke="#000441" stroke-width="2" stroke-miterlimit="10"/>
<path d="M138 36 L138 26" stroke="#000441" stroke-width="2" stroke-miterlimit="10"/>
<path d="M12 118H48V146H12Z" fill="white" stroke="#000441" stroke-width="2" stroke-miterlimit="10"/>
<path d="M12 126 L48 126" stroke="#000441" stroke-width="2" stroke-miterlimit="10"/>
<path d="M20 134 L40 134" stroke="#000441" stroke-width="2" stroke-miterlimit="10"/>
<path d="M112 118H148V146H112Z" fill="white" stroke="#000441" stroke-width="2" stroke-miterlimit="10"/>
<path d="M126 126 L120 132 L126 138" stroke="#000441" stroke-width="2" stroke-miterlimit="10"/>
<path d="M134 126 L140 132 L134 138" stroke="#000441" stroke-width="2" stroke-miterlimit="10"/>
<path d="M51 46H57V52H51Z" fill="#BCB6FF" stroke="#000441" stroke-width="2" stroke-miterlimit="10"/>
<path d="M103 46H109V52H103Z" fill="#BCB6FF" stroke="#000441" stroke-width="2" stroke-miterlimit="10"/>
<path d="M51 108H57V114H51Z" fill="#BCB6FF" stroke="#000441" stroke-width="2" stroke-miterlimit="10"/>
<path d="M103 108H109V114H103Z" fill="#BCB6FF" stroke="#000441" stroke-width="2" stroke-miterlimit="10"/>
<path d="M56 56H104V104H56Z" fill="#9288FF" stroke="#000441" stroke-width="2" stroke-miterlimit="10"/>
<path d="M65.6 93.44L74.24 68.48L82.88 93.44M69.056 84.45439999999999H79.42399999999999" stroke="#000441" stroke-width="2.5" stroke-miterlimit="10"/>
<path d="M91.52 77.12 L91.52 93.44" stroke="#000441" stroke-width="2.5" stroke-miterlimit="10"/>
<circle cx="91.52" cy="70.88" r="1.9" fill="#000441"/>
</svg>
